<svg xmlns="http://www.w3.org/2000/svg" height="24" viewBox="0 -960 960 960" width="24"><path d="M355.385-380q-91.667 0-155.834-64.167Q135.385-508.333 135.385-600q0-13.333 1.846-26.667 1.846-13.333 5.23-25.949 2.693-8.461 8.27-12.307t13.038-5.846q7.462-2 14.654.115t12.885 7.808l108.077 106.538L399.077-656 293.308-762.538q-5.693-5.693-7.808-13.415-2.116-7.723-.116-15.039t6.231-12.893q4.231-5.577 11.923-8.269 12.616-4.154 25.693-6Q342.308-820 355.385-820q91.666 0 155.833 64.167Q575.385-691.667 575.385-600q0 27.615-5.539 50.808-5.538 23.192-16.615 43.961L786-272.923q21.308 21.103 21.308 51.667t-21.145 51.871q-21.146 21.308-51.77 21.308-30.624 0-51.932-21.538L450.154-402.154q-22.308 10.308-45.518 16.231Q381.425-380 355.385-380Zm0-40q26.512 0 53.025-7.616 26.513-7.615 49.052-23.846l253.769 253.769q9.615 9.616 23.115 9.5 13.5-.115 23.115-9.73 9.616-9.616 9.616-23.116t-9.616-23.115L503.692-497.692q15.693-21.539 23.693-48.039 8-26.5 8-54.269 0-73.077-56.577-131.038Q422.231-789 333.693-778l99.384 99.385q9.692 9.692 9.692 22.615 0 12.923-9.692 22.615L322-522.308q-9.692 9.693-22.615 9.693-12.923 0-22.616-9.693l-99.384-99.384q-8.692 97 50.038 149.346Q286.154-420 355.385-420Zm111.307-70.231Z"/></svg>