<svg xmlns="http://www.w3.org/2000/svg" height="24" viewBox="0 -960 960 960" width="24"><path d="M193.846-169.23q-27.615 0-46.116-18.5-18.5-18.501-18.5-46.116v-204.616q0-8.538 5.731-14.269t14.27-5.731q8.538 0 14.269 5.731t5.731 14.269v204.616q0 9.231 7.692 16.923 7.692 7.692 16.923 7.692h284.616q8.538 0 14.269 5.731t5.731 14.269q0 8.539-5.731 14.27t-14.269 5.731H193.846ZM344.615-320Q317-320 298.5-338.5 280-357 280-384.615v-204.616q0-8.538 5.731-14.269 5.73-5.731 14.269-5.731 8.538 0 14.269 5.731T320-589.231v204.616q0 9.23 7.692 16.923Q335.385-360 344.615-360h284.616q8.538 0 14.269 5.731T649.231-340q0 8.539-5.731 14.269Q637.769-320 629.231-320H344.615Zm150.77-150.769q-27.616 0-46.116-18.5t-18.5-46.116v-190.769q0-27.615 18.5-46.116 18.5-18.5 46.116-18.5h270.769q27.615 0 46.116 18.5 18.5 18.501 18.5 46.116v190.769q0 27.616-18.5 46.116-18.501 18.5-46.116 18.5H495.385Zm0-40h270.769q9.231 0 16.923-7.693 7.692-7.692 7.692-16.923v-135.384h-320v135.384q0 9.231 7.693 16.923 7.692 7.693 16.923 7.693Z"/></svg>