<svg xmlns="http://www.w3.org/2000/svg" height="24" viewBox="0 -960 960 960" width="24"><path d="M438.462-120q-16.501 0-28.251-11.75T398.461-160v-208.461H265.384q-27.615 0-46.5-18.5Q200-405.461 200-432.307v-263.847q0-42.836 30.957-73.341Q261.913-800 305.385-800h422.308q13.73 0 23.019 9.288Q760-781.423 760-767.693v335.386q0 26.846-19.432 45.346-19.433 18.5-46.722 18.5H560.769V-160q0 16.5-11.75 28.25T520.769-120h-82.307ZM240-541.539h480V-760h-65.384v128.461q0 8.501-5.758 14.251t-14.27 5.75q-8.511 0-14.242-5.75-5.731-5.75-5.731-14.251V-760h-73.846v58.461q0 8.5-5.757 14.251-5.758 5.75-14.27 5.75-8.511 0-14.242-5.75-5.731-5.751-5.731-14.251V-760H305.385q-27.616 0-46.5 18.115Q240-723.769 240-696.154v154.615Zm25.384 133.078h428.462q10.769 0 18.462-6.924Q720-422.308 720-432.307v-69.231H240v69.231q0 9.999 7.308 16.922 7.307 6.924 18.076 6.924Zm-25.384 0v-93.077 93.077Z"/></svg>