<svg xmlns="http://www.w3.org/2000/svg" height="24" viewBox="0 -960 960 960" width="24"><path d="M161.538-221.538q-8.538 0-14.269-5.731t-5.731-14.269q0-8.539 5.731-14.27 5.731-5.73 14.269-5.73h174.616Q321.461-319.923 289-358.615q-32.462-38.693-80.539-70.693-17.384-11.461-16-22.731 1.385-11.269 22.769-12.576Q320.846-468.769 400.423-400 480-331.231 480-221.538H161.538Zm358.462 0q0-20.462-3.231-42.731-3.23-22.269-11-44.116 34.308-67.461 96.731-111.23 62.423-43.77 141.5-45 22.462-.231 23.846 12.038 1.385 12.269-16.307 23.269-46.539 28.154-79.385 68.77-32.846 40.615-48.308 99h174.616q8.538 0 14.269 5.73 5.731 5.731 5.731 14.27 0 8.538-5.731 14.269t-14.269 5.731H520Zm-30.769-126.693q-14.616-106 33.577-186.962Q571-616.154 657.539-648.923q23-8.77 32.461 1.538 9.462 10.308-9.769 30.077Q645.923-582.693 625.5-543q-20.423 39.692-30.269 80.154-32.462 17.153-63.577 50.346-31.115 33.192-42.423 64.269Zm-39.924-55q-13.538-17.462-34-34.692-20.461-17.231-41.922-27.539 2.307-8.307 3.692-20.192 1.384-11.885 1.384-23.269 0-43-9.192-82.539-9.192-39.538-26.577-76.077-11-22 1.885-29.808 12.884-7.807 30.577 7.424 35.23 29 61.192 70.23 25.962 41.231 38.346 93.693-12.615 26.923-18.692 60.038-6.077 33.115-6.693 62.731Z"/></svg>