<svg xmlns="http://www.w3.org/2000/svg" height="24" viewBox="0 -960 960 960" width="24"><path d="M227.511-195.384q-43.665 0-74.049-30.513Q123.077-256.41 123.077-300H100q-13.73 0-23.02-9.288-9.288-9.289-9.288-23.02v-363.077q0-27.615 18.5-46.115 18.5-18.5 46.116-18.5h464.615q26.654 0 45.635 18.981 18.981 18.98 18.981 45.634v80h60q15.346 0 29.077 6.866 13.73 6.865 22.615 18.98l112.615 151.616q3.231 4.038 4.847 8.884 1.615 4.846 1.615 10.5v86.231q0 13.731-9.289 23.02Q873.731-300 860-300h-32.308q0 43.59-30.565 74.103-30.566 30.513-74.231 30.513-43.665 0-74.05-30.513Q618.461-256.41 618.461-300H332.308q0 43.846-30.566 74.231-30.565 30.385-74.231 30.385Zm.181-40.001q27 0 45.808-18.807Q292.308-273 292.308-300T273.5-345.807q-18.808-18.808-45.808-18.808t-45.807 18.808Q163.077-327 163.077-300q0 27 18.808 45.808 18.807 18.807 45.807 18.807ZM107.692-340h25.847q8.538-26.462 34.769-45.538 26.231-19.077 59.384-19.077 31.616 0 58.616 18.692T321.846-340h299.692v-355.385q0-10.769-6.923-17.692T596.923-720H132.308q-9.231 0-16.923 7.692-7.693 7.693-7.693 16.923V-340Zm615.385 104.615q27 0 45.808-18.807Q787.692-273 787.692-300t-18.807-45.807q-18.808-18.808-45.808-18.808t-45.808 18.808Q658.462-327 658.462-300q0 27 18.807 45.808 18.808 18.807 45.808 18.807ZM661.539-420H850L740-565.385q-3.846-4.615-8.846-7.307-5-2.693-11.154-2.693h-58.461V-420ZM364.615-530Z"/></svg>