<svg xmlns="http://www.w3.org/2000/svg" height="24" viewBox="0 -960 960 960" width="24"><path d="M298.461-160q-26.653 0-45.634-18.981-18.981-18.98-18.981-45.634V-640q0-26.654 18.981-45.635 18.981-18.98 45.634-18.98h86.154v-70.77q0-26.654 18.981-45.634Q422.577-840 449.231-840h61.538q26.654 0 45.635 18.981 18.981 18.98 18.981 45.634v70.77h86.154q26.653 0 45.634 18.98 18.981 18.981 18.981 45.635v415.385q0 26.654-18.981 45.634Q688.192-160 661.539-160v9.231q0 12.385-9.193 21.577Q643.154-120 630.769-120q-12.384 0-21.577-9.192Q600-138.384 600-150.769V-160H360v9.231q0 12.385-9.192 21.577Q341.615-120 329.231-120q-12.385 0-21.577-9.192-9.193-9.192-9.193-21.577V-160Zm0-40h363.078q10.769 0 17.692-6.923t6.923-17.692V-640q0-10.769-6.923-17.692t-17.692-6.923H298.461q-10.769 0-17.692 6.923T273.846-640v415.385q0 10.769 6.923 17.692T298.461-200Zm106.127-393.846q-8.511 0-14.242 5.75-5.731 5.75-5.731 14.25v283.077q0 8.5 5.758 14.25t14.269 5.75q8.512 0 14.243-5.75 5.73-5.75 5.73-14.25v-283.077q0-8.5-5.757-14.25-5.758-5.75-14.27-5.75Zm150.77 0q-8.512 0-14.243 5.75-5.73 5.75-5.73 14.25v283.077q0 8.5 5.757 14.25 5.758 5.75 14.27 5.75 8.511 0 14.242-5.75 5.731-5.75 5.731-14.25v-283.077q0-8.5-5.758-14.25t-14.269-5.75ZM424.615-704.615h110.77v-70.77q0-10.769-6.924-17.692Q521.538-800 510.769-800h-61.538q-10.769 0-17.692 6.923-6.924 6.923-6.924 17.692v70.77ZM480-432.308Z"/></svg>