<svg xmlns="http://www.w3.org/2000/svg" height="24" viewBox="0 -960 960 960" width="24"><path d="M281.538-287.692h172.308q7.693 0 13.077-5.384 5.385-5.385 5.385-13.077v-26.154q0-7.692-5.385-13.077-5.384-5.385-13.077-5.385H281.538q-7.692 0-13.077 5.385-5.384 5.385-5.384 13.077v26.154q0 7.692 5.384 13.077 5.385 5.384 13.077 5.384ZM277.692-580h180q6.616 0 12.154-5.538 5.539-5.539 5.539-12.154 0-6.616-5.539-12.154-5.538-5.539-12.154-5.539h-180q-6.615 0-12.154 5.539Q260-604.308 260-597.692q0 6.615 5.538 12.154Q271.077-580 277.692-580Zm0-84.615h180q6.616 0 12.154-5.539 5.539-5.538 5.539-12.154 0-6.615-5.539-12.154Q464.308-700 457.692-700h-180q-6.615 0-12.154 5.538Q260-688.923 260-682.308q0 6.616 5.538 12.154 5.539 5.539 12.154 5.539ZM600-552.307v-40.001h55.385q10.769 0 17.692-6.923T680-616.923v-46.154q0-10.769-6.923-17.692t-17.692-6.923H600v-40.001h55.385q26.654 0 45.635 18.981Q720-689.731 720-663.077V-660h67.693q8.5 0 14.25 5.758 5.75 5.757 5.75 14.269t-5.75 14.242q-5.75 5.731-14.25 5.731H720v3.077q0 26.654-18.98 45.635-18.981 18.981-45.635 18.981H600ZM447.693-390.769h-40.001v-136.923h127.693q10.769 0 17.692-6.923T560-552.307v-175.386q0-10.769-6.923-17.692t-17.692-6.923h-280q-33 0-56.5 23.5t-23.5 56.5v64.616q0 33 23.5 56.5t56.5 23.5h72.307v136.923h-40v-96.923h-32.307q-49.501 0-84.751-35.25-35.25-35.25-35.25-84.75v-64.616q0-49.5 35.25-84.75t84.751-35.25h280q26.654 0 45.634 18.981Q600-754.346 600-727.693v175.386q0 26.653-18.981 45.634-18.98 18.981-45.634 18.981h-87.692v96.923ZM271.538-247.692q-20.192 0-34.327-14.134-14.134-14.135-14.134-34.327v-46.154q0-20.193 14.134-34.327 14.135-14.135 34.327-14.135h192.308q20.193 0 34.327 14.135 14.135 14.134 14.135 34.327v46.154q0 20.192-14.135 34.327-14.134 14.134-34.327 14.134H271.538ZM367.692-640Zm86.154 352.308H263.077h209.231-18.462Z"/></svg>