<svg xmlns="http://www.w3.org/2000/svg" height="24" viewBox="0 -960 960 960" width="24"><path d="M224.615-80q-26.654 0-45.634-18.98Q160-117.962 160-144.616v-170q0-73.424 51.75-125.174t125.173-51.75h51.538v-323.077q0-26.971 18.5-46.177Q425.461-880 452.308-880h55.384q26.847 0 45.347 19.207 18.5 19.206 18.5 46.177v323.077h50.769q73.742 0 125.717 51.75Q800-388.039 800-314.615v170q0 26.654-18.981 45.634Q762.039-80 735.385-80h-510.77Zm0-40H310v-140.769q0-8.5 5.758-14.25 5.757-5.75 14.269-5.75 8.511 0 14.242 5.75 5.731 5.75 5.731 14.25V-120h110v-140.769q0-8.5 5.758-14.25 5.757-5.75 14.269-5.75t14.242 5.75q5.731 5.75 5.731 14.25V-120h110v-140.769q0-8.5 5.758-14.25t14.269-5.75q8.512 0 14.242 5.75 5.731 5.75 5.731 14.25V-120h85.385q10.769 0 17.692-6.923T760-144.615v-170q0-57.693-40.16-97.308-40.16-39.615-97.532-39.615H336.923q-57.051 0-96.987 39.935Q200-371.667 200-314.615v170q0 10.769 6.923 17.692T224.615-120Zm306.923-371.539v-323.077q0-10.769-6.923-18.076Q517.692-840 507.692-840h-55.384q-10 0-16.923 7.308-6.923 7.307-6.923 18.076v323.077h103.076Zm0 0H428.462h103.076Z"/></svg>