<svg xmlns="http://www.w3.org/2000/svg" height="24" viewBox="0 -960 960 960" width="24"><path d="M738.615-121q-6.461 0-11.923-2.115-5.461-2.116-10.692-7.346L516.615-329.077q-5.23-5.23-7.346-10.692-2.115-5.462-2.115-11.923 0-6.462 2.115-11.923 2.116-5.462 7.346-10.693l66.539-66.538q5.231-5.231 10.692-7.346 5.462-2.116 11.923-2.116 6.462 0 11.924 2.116 5.461 2.115 10.692 7.346l199.384 199.385q5.231 5.23 7.347 10.692 2.115 5.461 2.115 11.923 0 6.461-2.115 11.923-2.116 5.462-7.347 10.692l-66.538 65.77q-5.231 5.23-10.692 7.346Q745.077-121 738.615-121Zm0-41.923 55.923-55.923L606-407.384l-55.923 55.923 188.538 188.538Zm-518.23 42.154q-6.462 0-12.039-2.231t-10.808-7.461L131.231-196q-5.231-5.231-7.462-10.808t-2.231-12.038q0-6.462 2.231-12.308t7.462-11.077l205.846-205.846h83.461L451.461-479 281.846-648.615h-57l-101-101 85.308-85.308 101 101v57l169.615 169.615 120.616-120.615-73.769-73.769 45.23-45.231h-90.692l-16.462-15.692 113.539-113.539 15.692 15.692V-769l45.231-45.231 158.923 157.385q14.692 13.923 21.769 31.961 7.077 18.039 7.077 38.193 0 14.769-4.384 28.692-4.385 13.923-12.923 26.308l-81.924-81.923-56.769 56.769-42.769-42.769-180.077 180.077v84.769L243-130.461q-5.231 5.23-10.692 7.461-5.462 2.231-11.923 2.231Zm0-42.923 196.922-196.923v-55.923h-55.922L164.462-219.615l55.923 55.923Zm0 0-55.923-55.923 28.076 27.846 27.847 28.077Zm518.23.769 55.923-55.923-55.923 55.923Z"/></svg>