<svg xmlns="http://www.w3.org/2000/svg" height="24" viewBox="0 -960 960 960" width="24"><path d="M460-155.385v-189.23H360q-66.846 0-113.423-46.577T200-504.615q0-53.077 34.538-93.962 34.539-40.885 84.385-62.346 8.231-78.846 52.038-121.27Q414.769-824.616 480-824.616t109.039 42.423q43.807 42.424 52.038 121.27 50.616 19.923 84.769 61.577Q760-557.692 760-504.615q0 66.846-46.577 113.423T600-344.615H500v189.23h200q8.5 0 14.25 5.758t5.75 14.269q0 8.512-5.75 14.243T700-115.384H260q-8.5 0-14.25-5.758t-5.75-14.27q0-8.511 5.75-14.242 5.75-5.731 14.25-5.731h200Zm-100-229.23h240q50 0 85-35t35-85q0-41.385-27.038-72.539-27.039-31.154-66.962-46.692l-22-8.769-2.923-26.001q-6.769-62.692-39.115-94.346-32.347-31.653-81.962-31.653t-81.962 31.653q-32.346 31.654-39.115 94.346L356-632.615l-28.154 11.846Q291-605.231 265.5-574.846 240-544.462 240-504.615q0 50 35 85t85 35Zm120-200Z"/></svg>