<svg xmlns="http://www.w3.org/2000/svg" height="40" viewBox="0 -960 960 960" width="40"><path d="m438-422.769-71.385-71.385q-5.846-5.846-13.769-6.231-7.923-.384-14.538 6.231-6.616 6.615-6.616 14.269t6.616 14.27l77.077 77.307q9.692 9.693 22.615 9.693 12.923 0 22.615-9.693l161.539-161.538q5.846-5.846 6.231-13.885.384-8.038-6.231-14.654Q615.539-585 607.885-585t-14.27 6.615L438-422.769Zm42 296.462q-5.462 0-11.462-1t-11.23-3q-118.077-45-187.693-152.654Q200-390.615 200-516v-171.308q0-20.384 11.807-36.923 11.808-16.538 30.193-24l215.385-80q11.692-4.231 22.615-4.231 10.923 0 22.615 4.231l215.385 80q18.385 7.462 30.193 24Q760-707.692 760-687.308V-516q0 125.385-69.615 233.039-69.616 107.654-187.693 152.654-5.23 2-11.23 3t-11.462 1ZM480-164q104-33 172-132t68-220v-172.077q0-7.692-4.231-13.846-4.23-6.154-11.923-9.231l-215.385-80q-3.846-1.538-8.461-1.538t-8.461 1.538l-215.385 80q-7.693 3.077-11.923 9.231Q240-695.769 240-688.077V-516q0 121 68 220t172 132Zm0-314.462Z"/></svg>